<svg width="1600" height="900" viewBox="0 0 1600 900" xmlns="http://www.w3.org/2000/svg">
  <defs>
    <linearGradient id="bg" x1="0" y1="0" x2="0" y2="1">
      <stop offset="0%" stop-color="#1e293b"/>
      <stop offset="100%" stop-color="#0f172a"/>
    </linearGradient>
    <linearGradient id="sea" x1="0" y1="0" x2="1" y2="0">
      <stop offset="0%" stop-color="#1f4f7a"/>
      <stop offset="100%" stop-color="#113768"/>
    </linearGradient>
    <linearGradient id="ship" x1="0" y1="0" x2="1" y2="1">
      <stop offset="0%" stop-color="#e2e8f0"/>
      <stop offset="100%" stop-color="#8dd6ff"/>
    </linearGradient>
  </defs>
  <rect width="1600" height="900" fill="url(#bg)"/>
  <rect y="540" width="1600" height="360" fill="url(#sea)"/>
  <circle cx="1290" cy="160" r="68" fill="#8dd6ff" opacity="0.14"/>
  <rect x="1080" y="115" width="340" height="120" rx="28" fill="#0b1220" stroke="#334155"/>
  <text x="1120" y="164" fill="#e5eefc" font-size="34" font-family="Inter,Arial">Port departure</text>
  <text x="1120" y="206" fill="#9fb2cc" font-size="22" font-family="Inter,Arial">Electric mode enabled · berth exit</text>
  <path d="M210 560h780l-82 102H290Z" fill="#dbeafe"/>
  <rect x="405" y="445" width="142" height="115" rx="10" fill="#bfe6ff"/>
  <rect x="565" y="400" width="110" height="160" rx="10" fill="#8dd6ff"/>
  <rect x="690" y="360" width="92" height="200" rx="10" fill="#60a5fa"/>
  <rect x="812" y="454" width="116" height="106" rx="10" fill="#93c5fd"/>
  <rect x="1030" y="575" width="240" height="56" rx="20" fill="#0b1220" stroke="#66b6ff" stroke-width="3"/>
  <text x="1056" y="612" fill="#8dd6ff" font-size="24" font-family="Inter,Arial">Battery-assisted manoeuvring</text>
  <circle cx="340" cy="690" r="11" fill="#e5eefc"/>
  <circle cx="470" cy="708" r="8" fill="#e5eefc" opacity="0.75"/>
  <circle cx="610" cy="690" r="11" fill="#e5eefc"/>
  <circle cx="750" cy="706" r="8" fill="#e5eefc" opacity="0.75"/>
  <path d="M40 720c72-18 144-18 216 0s144 18 216 0 144-18 216 0 144 18 216 0 144-18 216 0 144 18 216 0" stroke="#8dd6ff" stroke-width="8" fill="none" opacity="0.4"/>
</svg>
