<svg width="1600" height="900" viewBox="0 0 1600 900" xmlns="http://www.w3.org/2000/svg">
  <rect width="1600" height="900" fill="#0f172a"/>
  <rect y="620" width="1600" height="280" fill="#143a5a"/>
  <rect x="120" y="230" width="1040" height="340" rx="24" fill="#1f2937" stroke="#334155"/>
  <rect x="170" y="280" width="180" height="130" rx="14" fill="#8dd6ff"/>
  <rect x="390" y="280" width="180" height="130" rx="14" fill="#bfe6ff"/>
  <rect x="610" y="280" width="180" height="130" rx="14" fill="#8dd6ff"/>
  <rect x="830" y="280" width="180" height="130" rx="14" fill="#bfe6ff"/>
  <rect x="170" y="440" width="180" height="80" rx="12" fill="#0b1220"/>
  <rect x="390" y="440" width="180" height="80" rx="12" fill="#0b1220"/>
  <rect x="610" y="440" width="180" height="80" rx="12" fill="#0b1220"/>
  <rect x="830" y="440" width="180" height="80" rx="12" fill="#0b1220"/>
  <rect x="1230" y="300" width="240" height="120" rx="18" fill="#0b1220" stroke="#66b6ff" stroke-width="3"/>
  <text x="1268" y="350" fill="#e5eefc" font-size="30" font-family="Inter,Arial">Trailer yard</text>
  <text x="1268" y="388" fill="#9fb2cc" font-size="20" font-family="Inter,Arial">Container transfer</text>
  <g transform="translate(210,590)">
    <rect x="0" y="60" width="240" height="38" rx="16" fill="#dbeafe"/>
    <rect x="30" y="0" width="120" height="72" rx="12" fill="#8dd6ff"/>
    <circle cx="48" cy="108" r="18" fill="#0b1220" stroke="#8dd6ff" stroke-width="6"/>
    <circle cx="196" cy="108" r="18" fill="#0b1220" stroke="#8dd6ff" stroke-width="6"/>
  </g>
  <g transform="translate(520,590)">
    <rect x="0" y="60" width="240" height="38" rx="16" fill="#dbeafe"/>
    <rect x="30" y="0" width="120" height="72" rx="12" fill="#8dd6ff"/>
    <circle cx="48" cy="108" r="18" fill="#0b1220" stroke="#8dd6ff" stroke-width="6"/>
    <circle cx="196" cy="108" r="18" fill="#0b1220" stroke="#8dd6ff" stroke-width="6"/>
  </g>
  <g transform="translate(830,590)">
    <rect x="0" y="60" width="240" height="38" rx="16" fill="#dbeafe"/>
    <rect x="30" y="0" width="120" height="72" rx="12" fill="#8dd6ff"/>
    <circle cx="48" cy="108" r="18" fill="#0b1220" stroke="#8dd6ff" stroke-width="6"/>
    <circle cx="196" cy="108" r="18" fill="#0b1220" stroke="#8dd6ff" stroke-width="6"/>
  </g>
</svg>
