<svg width="1400" height="900" viewBox="0 0 1400 900" fill="none" xmlns="http://www.w3.org/2000/svg">
  <defs>
    <linearGradient id="sky" x1="700" y1="40" x2="700" y2="420" gradientUnits="userSpaceOnUse">
      <stop stop-color="#16314B"/>
      <stop offset="1" stop-color="#0D1B2A"/>
    </linearGradient>
    <linearGradient id="sea" x1="700" y1="430" x2="700" y2="900" gradientUnits="userSpaceOnUse">
      <stop stop-color="#0C2B44"/>
      <stop offset="1" stop-color="#07111D"/>
    </linearGradient>
    <linearGradient id="ship" x1="371" y1="470" x2="1012" y2="607" gradientUnits="userSpaceOnUse">
      <stop stop-color="#E5EEF8"/>
      <stop offset="1" stop-color="#9DB8D2"/>
    </linearGradient>
    <linearGradient id="containers" x1="617" y1="366" x2="919" y2="479" gradientUnits="userSpaceOnUse">
      <stop stop-color="#38BDF8"/>
      <stop offset="0.5" stop-color="#22C55E"/>
      <stop offset="1" stop-color="#F59E0B"/>
    </linearGradient>
  </defs>
  <rect width="1400" height="900" fill="url(#sky)"/>
  <rect y="430" width="1400" height="470" fill="url(#sea)"/>
  <circle cx="1168" cy="145" r="58" fill="#F59E0B" opacity="0.88"/>
  <path d="M0 508C115 490 214 499 307 521C401 542 500 566 633 549C765 533 875 461 997 471C1119 482 1230 544 1400 515V900H0V508Z" fill="#0B2134"/>
  <path d="M366 548L555 548L684 414H1037L1124 548L1000 602H455L366 548Z" fill="url(#ship)" stroke="#DFF4FF" stroke-width="8" stroke-linejoin="round"/>
  <rect x="666" y="307" width="214" height="100" rx="14" fill="#10273C" stroke="#67E8F9" stroke-width="4"/>
  <rect x="816" y="261" width="102" height="146" rx="14" fill="#0F2134" stroke="#7DD3FC" stroke-width="4"/>
  <rect x="593" y="355" width="316" height="58" rx="10" fill="url(#containers)" opacity="0.95"/>
  <rect x="619" y="420" width="310" height="48" rx="10" fill="#1E3A56"/>
  <rect x="636" y="430" width="84" height="30" rx="8" fill="#38BDF8"/>
  <rect x="726" y="430" width="84" height="30" rx="8" fill="#22C55E"/>
  <rect x="816" y="430" width="84" height="30" rx="8" fill="#F59E0B"/>
  <path d="M988 402C1016 402 1044 420 1058 444" stroke="#2DD4BF" stroke-width="10" stroke-linecap="round"/>
  <path d="M1040 395H1098L1134 420V454H1080L1040 395Z" fill="#0EA5E9" stroke="#E0F2FE" stroke-width="5" stroke-linejoin="round"/>
  <path d="M468 642C560 624 644 620 733 625C822 629 907 641 986 668" stroke="#38BDF8" stroke-width="8" stroke-linecap="round" opacity="0.6"/>
  <path d="M454 692C547 670 655 668 740 675C825 683 909 696 999 722" stroke="#2DD4BF" stroke-width="6" stroke-linecap="round" opacity="0.4"/>
  <circle cx="536" cy="532" r="14" fill="#07111D" stroke="#C5EAFB" stroke-width="4"/>
  <circle cx="834" cy="534" r="14" fill="#07111D" stroke="#C5EAFB" stroke-width="4"/>
</svg>
