<svg width="1600" height="900" viewBox="0 0 1600 900" xmlns="http://www.w3.org/2000/svg">
  <rect width="1600" height="900" fill="#0f172a"/>
  <rect y="610" width="1600" height="290" fill="#143a5a"/>
  <rect x="80" y="250" width="420" height="280" rx="26" fill="#1f2937" stroke="#334155"/>
  <rect x="128" y="302" width="140" height="84" rx="12" fill="#8dd6ff"/>
  <rect x="290" y="302" width="140" height="84" rx="12" fill="#bfe6ff"/>
  <rect x="128" y="406" width="302" height="72" rx="12" fill="#0b1220"/>
  <g transform="translate(610,565)">
    <rect x="0" y="55" width="250" height="42" rx="18" fill="#dbeafe"/>
    <rect x="32" y="0" width="120" height="68" rx="12" fill="#8dd6ff"/>
    <circle cx="54" cy="108" r="18" fill="#0b1220" stroke="#8dd6ff" stroke-width="6"/>
    <circle cx="204" cy="108" r="18" fill="#0b1220" stroke="#8dd6ff" stroke-width="6"/>
  </g>
  <g transform="translate(910,565)">
    <rect x="0" y="55" width="250" height="42" rx="18" fill="#dbeafe"/>
    <rect x="32" y="0" width="120" height="68" rx="12" fill="#8dd6ff"/>
    <circle cx="54" cy="108" r="18" fill="#0b1220" stroke="#8dd6ff" stroke-width="6"/>
    <circle cx="204" cy="108" r="18" fill="#0b1220" stroke="#8dd6ff" stroke-width="6"/>
  </g>
  <rect x="1080" y="240" width="350" height="150" rx="24" fill="#0b1220" stroke="#66b6ff" stroke-width="3"/>
  <text x="1120" y="304" fill="#e5eefc" font-size="34" font-family="Inter,Arial">Truck-to-port flow</text>
  <text x="1120" y="352" fill="#9fb2cc" font-size="22" font-family="Inter,Arial">Yard movement, gate updates, ETA sync</text>
</svg>
