<svg width="1600" height="900" viewBox="0 0 1600 900" xmlns="http://www.w3.org/2000/svg">
  <rect width="1600" height="900" fill="#0f172a"/>
  <rect y="520" width="1600" height="380" fill="#113768"/>
  <path d="M140 560h990l-90 110H250Z" fill="#dbeafe"/>
  <rect x="420" y="430" width="160" height="130" rx="12" fill="#bfe6ff"/>
  <rect x="600" y="392" width="120" height="168" rx="12" fill="#8dd6ff"/>
  <rect x="740" y="360" width="100" height="200" rx="12" fill="#60a5fa"/>
  <rect x="860" y="450" width="150" height="110" rx="12" fill="#93c5fd"/>
  <circle cx="1230" cy="360" r="120" fill="#1f2937" stroke="#334155"/>
  <circle cx="1230" cy="360" r="88" fill="none" stroke="#66b6ff" stroke-width="24" stroke-dasharray="160 120"/>
  <text x="1164" y="346" fill="#e5eefc" font-size="36" font-family="Inter,Arial">67%</text>
  <text x="1126" y="392" fill="#9fb2cc" font-size="22" font-family="Inter,Arial">fuel priority</text>
  <rect x="1130" y="530" width="280" height="84" rx="24" fill="#0b1220" stroke="#66b6ff" stroke-width="3"/>
  <text x="1162" y="580" fill="#8dd6ff" font-size="26" font-family="Inter,Arial">Long-haul hybrid route</text>
  <path d="M75 706c72-18 144-18 216 0s144 18 216 0 144-18 216 0 144 18 216 0 144-18 216 0 144 18 216 0" stroke="#8dd6ff" stroke-width="8" fill="none" opacity="0.35"/>
</svg>
