<svg width="256" height="256" viewBox="0 0 256 256" xmlns="http://www.w3.org/2000/svg">
  <defs>
    <linearGradient id="g" x1="0" y1="0" x2="1" y2="1">
      <stop offset="0%" stop-color="#8dd6ff"/>
      <stop offset="100%" stop-color="#2f8cff"/>
    </linearGradient>
  </defs>
  <rect x="16" y="16" width="224" height="224" rx="56" fill="#0f172a"/>
  <path d="M54 148h148c-10 23-31 42-74 42-34 0-59-13-74-42Z" fill="url(#g)" opacity="0.95"/>
  <path d="M72 130h58v-18h20v18h34c10 0 18 8 18 18H54c2-10 9-18 18-18Z" fill="#dbeafe"/>
  <rect x="90" y="92" width="34" height="20" rx="4" fill="#bfe6ff"/>
  <rect x="132" y="84" width="20" height="28" rx="4" fill="#bfe6ff"/>
  <circle cx="178" cy="92" r="16" fill="#1e293b" stroke="#8dd6ff" stroke-width="6"/>
  <path d="M178 80v12l8 5" stroke="#8dd6ff" stroke-width="6" stroke-linecap="round" stroke-linejoin="round" fill="none"/>
  <path d="M66 173c17 8 35 12 55 12s38-4 55-12" stroke="#dbeafe" stroke-width="6" stroke-linecap="round" fill="none" opacity="0.7"/>
</svg>
