<svg width="1400" height="900" viewBox="0 0 1400 900" fill="none" xmlns="http://www.w3.org/2000/svg">
  <defs>
    <linearGradient id="bg" x1="700" y1="20" x2="700" y2="900" gradientUnits="userSpaceOnUse">
      <stop stop-color="#0F2236"/>
      <stop offset="1" stop-color="#07111D"/>
    </linearGradient>
  </defs>
  <rect width="1400" height="900" fill="url(#bg)"/>
  <rect y="555" width="1400" height="345" fill="#0A1624"/>
  <rect x="952" y="192" width="182" height="388" rx="18" fill="#162B40"/>
  <rect x="1006" y="90" width="74" height="500" rx="18" fill="#1C3F5A"/>
  <rect x="74" y="586" width="918" height="54" rx="14" fill="#223548"/>
  <rect x="130" y="504" width="360" height="82" rx="16" fill="#10293D"/>
  <rect x="154" y="462" width="110" height="42" rx="10" fill="#173652"/>
  <rect x="278" y="462" width="110" height="42" rx="10" fill="#173652"/>
  <rect x="402" y="462" width="68" height="42" rx="10" fill="#173652"/>
  <path d="M154 554L414 554L474 586H126L154 554Z" fill="#DDEAF6" stroke="#BCE6FF" stroke-width="6" stroke-linejoin="round"/>
  <rect x="591" y="476" width="246" height="110" rx="16" fill="#162C42"/>
  <rect x="614" y="432" width="78" height="44" rx="10" fill="#1E3A56"/>
  <rect x="712" y="432" width="78" height="44" rx="10" fill="#1E3A56"/>
  <rect x="612" y="392" width="206" height="30" rx="10" fill="#38BDF8" opacity="0.92"/>
  <rect x="1043" y="114" width="24" height="274" rx="12" fill="#38BDF8"/>
  <path d="M1052 380L942 474" stroke="#38BDF8" stroke-width="10" stroke-linecap="round"/>
  <path d="M942 474L1145 474" stroke="#38BDF8" stroke-width="10" stroke-linecap="round"/>
  <rect x="920" y="474" width="246" height="18" rx="9" fill="#3B5B78"/>
  <rect x="830" y="492" width="74" height="42" rx="10" fill="#F59E0B"/>
  <rect x="916" y="492" width="74" height="42" rx="10" fill="#22C55E"/>
  <rect x="1002" y="492" width="74" height="42" rx="10" fill="#38BDF8"/>
  <rect x="1088" y="492" width="74" height="42" rx="10" fill="#8B5CF6"/>
  <path d="M0 648H1400" stroke="#33485C" stroke-width="10"/>
  <rect x="130" y="658" width="312" height="88" rx="20" fill="#0E2235" stroke="#2E4A63" stroke-width="4"/>
  <rect x="172" y="687" width="104" height="34" rx="8" fill="#38BDF8"/>
  <rect x="286" y="687" width="104" height="34" rx="8" fill="#22C55E"/>
  <circle cx="198" cy="751" r="16" fill="#0A1624" stroke="#C6E9FF" stroke-width="4"/>
  <circle cx="368" cy="751" r="16" fill="#0A1624" stroke="#C6E9FF" stroke-width="4"/>
  <rect x="520" y="658" width="316" height="88" rx="20" fill="#0E2235" stroke="#2E4A63" stroke-width="4"/>
  <rect x="562" y="687" width="132" height="34" rx="8" fill="#F59E0B"/>
  <rect x="702" y="687" width="92" height="34" rx="8" fill="#FB7185"/>
  <circle cx="584" cy="751" r="16" fill="#0A1624" stroke="#C6E9FF" stroke-width="4"/>
  <circle cx="764" cy="751" r="16" fill="#0A1624" stroke="#C6E9FF" stroke-width="4"/>
</svg>
